<svg width="637" height="505" viewBox="0 0 637 505" fill="none" xmlns="http://www.w3.org/2000/svg">
<path d="M166.307 422.017C161.606 422.29 158.382 422.809 156.633 423.574C154.939 424.339 154.092 425.46 154.092 426.936C154.092 427.974 154.392 429.231 154.993 430.707L173.193 477.438H173.85L190.246 434.314C191.285 431.527 191.804 429.422 191.804 428.001C191.804 426.307 190.984 425.05 189.345 424.23C187.76 423.411 184.699 422.672 180.162 422.017V417.016H216.891V422.017C212.737 422.618 209.567 423.329 207.381 424.148C205.195 424.968 203.5 426.17 202.298 427.755C201.15 429.34 200.002 431.581 198.854 434.478L171.8 504.738H160.65L128.185 428.985C127.091 426.417 125.807 424.695 124.331 423.82C122.91 422.891 120.068 422.29 115.805 422.017V417.016H166.307V422.017ZM452.43 396.028V417.016H476.943L474.894 424.477H452.43V481.045C452.43 489.79 455.764 494.162 462.432 494.162C464.399 494.162 466.313 493.752 468.171 492.933C470.029 492.113 471.696 490.802 473.172 488.998L476.615 493.343C473.882 497.005 470.329 499.82 465.957 501.787C461.585 503.755 456.856 504.738 451.773 504.738C444.122 504.738 438.574 502.962 435.131 499.409C431.742 495.802 430.048 490.227 430.048 482.685V424.477H418.816L417.997 420.131L448.003 395.372L452.43 396.028ZM263.539 415.374C275.399 415.374 284.445 418.654 290.676 425.213C296.961 431.772 300.268 441.418 300.596 454.152L299.365 455.137H240.341C240.34 455.3 240.338 455.464 240.338 455.629C240.338 478.092 249.055 489.324 266.49 489.324C278.296 489.324 287.506 485.225 294.119 477.026L298.136 480.224C295.239 487.985 290.375 494.024 283.543 498.342C276.766 502.605 268.731 504.736 259.439 504.736C250.804 504.736 243.262 502.933 236.812 499.326C230.363 495.664 225.335 490.581 221.728 484.077C218.175 477.518 216.398 469.948 216.398 461.367C216.398 452.24 218.366 444.232 222.301 437.346C226.291 430.459 231.811 425.076 238.861 421.195C245.967 417.315 254.193 415.374 263.539 415.374ZM517.982 494.983L530.689 498.017V503.018H482.155V498.017L495.601 494.983V430.954L482.237 426.608V423.165L515.03 415.377H517.982V494.983ZM114.285 487.85C115.269 490.254 116.335 492.14 117.482 493.506C118.685 494.818 120.352 495.775 122.483 496.376C124.67 496.977 127.703 497.414 131.584 497.688V503.017H69.1123V497.688C74.0312 497.469 77.7749 497.113 80.3438 496.621C82.9672 496.075 84.5247 494.954 85.0166 493.26C85.5084 491.511 85.044 488.805 83.623 485.144L75.9219 464.074H38.7627L32.6299 480.471C31.3181 484.242 30.8801 487.248 31.3174 489.489C31.8093 491.675 33.4491 493.397 36.2363 494.654C39.0238 495.857 43.2054 496.868 48.7803 497.688V503.017H0V497.688C5.2469 496.813 9.20956 495.802 11.8877 494.654C14.5657 493.452 16.6425 491.703 18.1182 489.407C19.5939 487.112 21.1249 483.886 22.71 479.732L53.6172 398.569L47.1406 383.976L68.9482 374.876L114.285 487.85ZM585.76 422.017C580.95 422.345 578.026 423.164 576.987 424.476C576.004 425.733 576.66 427.81 578.955 430.707L591.154 447.151L602.812 433.74C605.709 430.297 606.61 427.674 605.518 425.87C604.424 424.066 601.145 422.782 595.68 422.017V417.016H633.474V422.017C629.812 422.672 626.861 423.438 624.62 424.312C622.379 425.132 620.411 426.225 618.717 427.592C617.077 428.904 615.246 430.707 613.224 433.002L595.61 453.158L623.718 491.047C625.357 493.124 627.024 494.709 628.719 495.802C630.413 496.895 633.173 497.633 636.999 498.016V503.017H587.399V498.016C592.756 497.633 595.953 496.867 596.991 495.72C598.03 494.517 597.428 492.386 595.188 489.325L580.047 468.99L565.756 486.292C562.859 489.899 562.039 492.577 563.296 494.326C564.553 496.075 568.188 497.305 574.2 498.016V503.017H533.864V498.016C539.548 497.25 543.976 495.993 547.146 494.244C550.37 492.495 553.403 489.899 556.245 486.456L575.537 462.934L550.261 428.985C548.676 426.854 546.954 425.323 545.096 424.394C543.292 423.41 540.231 422.618 535.913 422.017V417.016H585.76V422.017ZM344.363 427.938C348.206 424.272 352.55 421.313 357.398 419.063C362.755 416.604 368.521 415.374 374.697 415.374C391.476 415.374 399.866 424.174 399.866 441.773V495.062L411.999 498.014V503.015H365.925V498.014L377.484 495.062V447.922C377.484 441.309 376.145 436.417 373.467 433.247C370.843 430.022 366.771 428.41 361.251 428.41C354.803 428.41 349.42 430.873 345.101 435.798V494.98L356.742 498.014V503.015H310.586V498.014L322.883 494.98V431.115L310.586 426.606V423.327L341.411 415.374H344.363V427.938ZM41.8916 455.712H72.8652L57.8809 414.72H57.2246L41.8916 455.712ZM261.653 422.753C254.821 422.753 249.547 425.622 245.83 431.361C243.07 435.645 241.351 441.295 240.671 448.311L276.41 447.021C276.793 445.763 276.984 443.686 276.984 440.789C276.984 428.765 271.874 422.753 261.653 422.753ZM506.504 376.435C510.603 376.435 513.856 377.719 516.261 380.288C518.665 382.802 519.867 385.754 519.867 389.143C519.867 392.258 518.72 395.1 516.425 397.669C514.129 400.238 510.822 401.521 506.504 401.521C502.405 401.521 499.235 400.238 496.994 397.669C494.753 395.1 493.633 392.258 493.633 389.143C493.633 385.754 494.781 382.802 497.076 380.288C499.372 377.719 502.514 376.435 506.504 376.435ZM163.273 0C167.549 26.6227 272.988 71.6303 325.562 90.9375C322.194 109.026 327.98 133.096 363.188 154.475C398.395 175.854 410.114 205.468 410.995 213.922C411.876 222.375 410.995 224.012 412.301 236.828C414.123 262.461 427.791 286.094 441.731 290.729C447.49 289.784 450.63 291.548 451.48 292.548C455.034 290.639 463.436 289.421 468.611 299.819C470.579 304.328 468.884 308.182 467.791 309.546C466.789 306.425 463.617 300.983 458.952 304.183C460.483 306.655 461.169 308.788 461.321 309.546H412.301C414.488 305.395 416.492 295.62 407.016 289.729C395.17 282.367 380.865 279.64 372.664 266.642C381.338 269.623 385.39 269.157 386.332 268.551C380.318 267.127 367.015 261.769 361.912 251.734C369.128 255.007 373.909 254.25 375.397 253.462C371.163 252.153 368.233 248.614 367.297 247.008C361.465 247.977 346.813 249.208 334.858 246.372C322.904 243.536 315.36 238.343 313.082 236.101C314.631 238.161 319.77 243.1 327.934 246.372C324.289 256.915 318.884 261.248 316.636 262.097C312.9 264.187 305.081 269.66 303.696 274.823C301.145 283.622 309.559 288.972 314.084 290.548C315.815 290.033 320.116 289.712 323.469 292.548C331.414 288.33 337.166 294.305 339.05 297.819C341.115 300.213 344.007 305.837 339.05 309.182C337.319 303.728 334.676 301.274 330.029 304.364C331.852 306.4 332.429 308.97 332.49 310H284.835L288.845 301.819C284.532 298.093 273.627 287.567 264.516 275.277C275.303 273.75 278.73 266.703 279.095 263.37C279.854 259.492 279.076 250.426 269.892 245.19C272.006 241.918 274.053 236.252 274.812 233.828C258.685 258.734 244.197 266.642 222.42 267.097C200.643 267.551 195.358 281.913 195.357 290.639C201.408 289.402 204.743 291.154 205.654 292.185C206.322 291.094 209.171 289.567 215.222 292.185C222.784 295.457 226.793 303.728 220.598 310C219.686 302.456 215.13 301.637 212.396 304.637C214.51 306.891 214.371 309.152 214.037 310H162.009L181.963 256.188C182.904 256.916 186.902 257.571 195.357 254.371C207.676 251.172 212.944 240.555 214.037 235.646C214.705 232.223 217.317 223.993 222.42 218.467C218.994 220.285 213.52 225.345 211.212 227.647C207.871 231.132 198.073 239.373 185.608 244.463C170.027 250.826 156.816 249.371 145.518 244.463C134.22 239.554 132.578 226.647 137.954 216.285C142.255 207.995 154.386 201.741 159.914 199.65C164.895 197.438 176.333 191.397 182.237 184.926C189.618 176.836 191.948 163.383 180.649 158.747L180.648 158.744C177.702 158.078 170.389 157.836 164.704 162.198C167.474 144.164 146.297 138.868 135.363 138.474C170.016 126.767 188.229 142.831 193.932 153.778C197.013 158.775 200.496 170.048 194.174 183.198C187.322 197.451 168.479 206.589 159.914 209.377C153.566 211.74 141.8 219.084 145.518 229.556C151.622 242.918 174.128 239.464 189.892 228.102C205.564 215.958 222.603 202.317 229.163 197.015C248.188 180.435 273.051 185.683 283.104 190.379C294.676 195.621 321.392 203.868 335.68 194.924C319.916 196.742 314.54 197.833 299.142 191.47C317.001 190.197 319.187 187.743 330.668 169.019C306.977 192.197 284.563 190.106 273.355 181.017C289.301 182.107 294.951 181.017 322.104 159.656C281.655 184.017 250.64 172.412 240.188 163.564C281.228 166.255 309.954 152.869 319.188 145.84C234.175 162.474 219.049 154.475 207.112 134.387C227.158 148.658 260.782 144.021 307.98 131.568C210.758 132.114 202.102 131.841 182.603 94.3008C212.034 116.298 273.082 121.388 304.335 112.844C194.083 99.8455 180.142 87.6652 169.755 51.5791C181.2 78.4846 258.959 91.2709 296.408 94.3008C180.246 55.5834 168.77 41.0833 163.273 0ZM469.258 209.286C478.248 215.285 496.211 228.084 496.138 231.283C502.971 233.193 507.344 247.008 496.138 254.734C498.78 247.554 497.139 244.372 492.311 244.009C491.946 254.735 483.836 259.643 479.371 259.552C484.692 254.025 483.897 246.887 482.834 244.009C481.498 243.403 478.497 241.391 477.185 238.191C475.508 239.209 474.664 241.281 474.451 242.19C472.444 243.19 469.635 246.5 474.451 251.735C466.524 251.372 463.517 245.099 465.521 234.191C463.845 232.883 461.968 231.707 461.239 231.283C459.66 231.738 454.605 234.555 447.024 242.19C437.548 251.735 431.808 251.735 425.065 251.735C431.261 249.263 432.75 246.402 432.72 245.281C431.231 245.705 426.487 246.299 419.416 245.281C422.21 245.251 428.398 240.1 437.236 225.375C441.154 224.284 443.289 221.284 447.024 213.74C454.605 213.886 465.006 210.831 469.258 209.286ZM327.479 41.7627C337.866 53.0338 351.989 60.2141 386.522 59.8506C421.056 59.487 425.157 66.4867 427.981 71.8496C437.913 72.8494 452.401 71.2133 449.485 90.0283C448.611 97.009 443.775 99.3005 441.467 99.5732C443.259 96.3312 445.494 89.6104 440.1 88.665C433.357 87.4834 424.61 86.4837 417.047 96.4824C411.762 99.573 413.402 110.845 417.047 115.662C414.04 112.935 412.036 112.208 410.031 104.027C409.485 115.571 418.231 125.843 432.354 140.022C443.653 151.366 444.96 164.747 444.2 170.019C442.894 167.17 438.933 160.747 433.539 157.838C440.555 168.928 447.207 181.654 446.751 197.561C444.71 189.198 439.584 183.957 437.275 182.381C440.07 188.774 444.091 204.832 437.822 217.921C438.551 210.195 438.186 206.195 436.455 198.924C436.455 210.559 434.412 222.83 418.284 238.01C423.569 223.133 422.293 193.023 393.903 168.928C366.165 145.385 354.085 142.295 353.721 124.934C349.128 129.151 350.106 136.023 351.169 138.932C347.707 131.963 344.573 115.717 359.734 106.481C350.696 104.736 342.118 112.602 338.959 116.753C340.326 109.451 346.012 94.0283 357.82 90.7559C347.47 90.6104 340.205 86.3319 337.866 84.2109C342.878 84.9078 354.268 85.6652 359.734 83.1201C351.169 81.1204 340.053 76.8484 335.771 65.123C352.718 76.5758 370.668 77.9398 394.905 72.8496C355.725 71.4861 333.675 64.0322 327.479 41.7627Z" fill="white"/>
</svg>
